<?xml version="1.0" encoding="UTF-8"?>
<svg version="1.1" xmlns="http://www.w3.org/2000/svg" width="1576" height="444">
<path d="M0 0 C520.08 0 1040.16 0 1576 0 C1576 146.52 1576 293.04 1576 444 C1055.92 444 535.84 444 0 444 C0 297.48 0 150.96 0 0 Z " fill="#6033E8" transform="translate(0,0)"/>
<path d="M0 0 C0.77246063 -0.00100708 1.54492126 -0.00201416 2.34078979 -0.00305176 C13.69342029 0.00693025 24.68332269 0.4807391 35.83203125 2.81005859 C38.05834518 3.26183987 40.28829474 3.62904292 42.53125 3.98828125 C58.6578977 6.78749314 73.51107605 14.73087381 86 25.25 C86.82371094 25.93835938 87.64742187 26.62671875 88.49609375 27.3359375 C100.53386222 38.34082412 107.86851829 52.65717446 111.54443359 68.36474609 C111.96055097 70.0867495 112.45493609 71.78935516 112.95703125 73.48828125 C114.54842104 78.97457939 115.13823263 83.88909229 115.07421875 89.61328125 C115.05814575 91.48367065 115.05814575 91.48367065 115.04174805 93.3918457 C115.02797119 94.33503662 115.01419434 95.27822754 115 96.25 C109.05929342 96.34953497 103.11908173 96.42178154 97.17773438 96.46972656 C95.16039565 96.48973216 93.1431141 96.5169456 91.12597656 96.55175781 C88.21144427 96.60076577 85.29768441 96.62307964 82.3828125 96.640625 C81.49385284 96.66127014 80.60489319 96.68191528 79.68899536 96.70318604 C72.23690816 96.70580359 65.43361043 94.98066656 59.51953125 90.27734375 C58.67455078 89.24287109 58.67455078 89.24287109 57.8125 88.1875 C57.17054688 87.40503906 56.52859375 86.62257813 55.8671875 85.81640625 C53.92880136 83.1521391 52.17139849 80.42620934 50.4375 77.625 C42.85036572 65.38328671 32.30649629 58.6848011 18.45703125 54.9765625 C1.58757191 51.43111681 -22.21424403 50.10059668 -37.67578125 58.6875 C-43.89791128 62.87044456 -50.34903168 67.64738424 -52.0625 75.25 C-52.61365865 77.65505592 -53.21684925 79.90054776 -54 82.25 C-54.79004776 92.50542767 -53.72174629 99.258301 -47.1875 107.25 C-35.19489323 119.7790173 -15.05578765 127.54442124 2 129.25 C2.33 129.58 2.66 129.91 3 130.25 C4.75098751 130.55682183 6.50922683 130.82247129 8.26953125 131.0703125 C14.97532176 132.14284248 21.2410251 134.02716082 27.6875 136.125 C35.12156994 138.48832282 42.49614583 140.73720275 50.125 142.375 C57.06903009 143.88355092 63.5049128 146.14850914 70.09375 148.7578125 C72.65272368 149.76330564 75.20777567 150.6483094 77.84375 151.4296875 C95.21866174 156.63498131 110.70794445 167.39187458 120 183.25 C130.31680327 203.14277226 131.66295968 230.8225274 125 252.25 C124.70996094 253.24604248 124.70996094 253.24604248 124.4140625 254.26220703 C121.25274346 264.99264102 117.01087312 273.50099028 110 282.25 C109.27683594 283.15492188 108.55367187 284.05984375 107.80859375 284.9921875 C98.99989217 295.36092746 88.18541821 301.65760427 76.01416016 307.30908203 C74.65437913 307.9443058 73.30501444 308.60224839 71.96630859 309.28076172 C65.49242132 312.42826252 58.93705351 313.66618003 51.875 314.875 C50.19277344 315.18050781 50.19277344 315.18050781 48.4765625 315.4921875 C44.98921795 316.11322146 41.49786666 316.6913697 38 317.25 C36.22713623 317.53580933 36.22713623 317.53580933 34.41845703 317.82739258 C24.62874734 319.2783232 15.00183495 319.69141272 5.125 319.6875 C3.90192642 319.68860275 3.90192642 319.68860275 2.65414429 319.68972778 C-21.10680653 319.63411932 -45.18807386 317.26373575 -67 307.25 C-68.65708984 306.54230469 -68.65708984 306.54230469 -70.34765625 305.8203125 C-78.45378223 302.11764334 -85.20259392 296.92977327 -92 291.25 C-92.66773437 290.69828125 -93.33546875 290.1465625 -94.0234375 289.578125 C-100.24864716 283.90821573 -104.61999384 276.36539065 -109 269.25 C-109.60457031 268.26902344 -110.20914063 267.28804688 -110.83203125 266.27734375 C-115.37778204 258.09499233 -116.96172896 249.45831487 -118.609375 240.34667969 C-119.08438105 237.79708473 -119.66866776 235.27718044 -120.25 232.75 C-121 228.25 -121 228.25 -121 217.25 C-100.54 217.25 -80.08 217.25 -59 217.25 C-57.68 222.86 -56.36 228.47 -55 234.25 C-48.80575772 248.94614344 -41.61466167 256.05701246 -27 262.25 C-19.40270672 265.17283316 -11.70996693 265.41135788 -3.671875 265.453125 C-2.80161682 265.45882507 -1.93135864 265.46452515 -1.034729 265.47039795 C0.79731044 265.47979092 2.62936635 265.48635905 4.46142578 265.49023438 C7.22849773 265.4999247 9.99482095 265.53099645 12.76171875 265.5625 C28.95642775 265.66078458 40.56354352 262.94508529 54.3125 254.125 C61.68094895 246.24247322 64.50750123 236.58161847 64.3984375 226.03515625 C63.67090307 219.12357919 61.06955751 213.19847043 56.01953125 208.34765625 C43.44629622 199.34714374 26.74190989 195.12566364 11.75634766 192.05273438 C2.67744365 190.10386962 -6.16002968 187.27801261 -15.01586914 184.51074219 C-21.00099799 182.66087253 -26.90704394 181.00634559 -33.0546875 179.7890625 C-40.30331971 178.30181157 -47.01180879 175.92511614 -53.875 173.1875 C-55.70309204 172.46167725 -55.70309204 172.46167725 -57.56811523 171.72119141 C-67.10511073 167.82721959 -75.71652975 163.36187833 -84 157.25 C-85.00675781 156.52296875 -86.01351562 155.7959375 -87.05078125 155.046875 C-99.9781486 145.10549707 -112.81286833 129.15407684 -115.625 112.5625 C-117.47907628 92.10023995 -116.55488827 71.09136838 -108 52.25 C-107.55785156 51.19554687 -107.11570312 50.14109375 -106.66015625 49.0546875 C-97.58815334 28.91221147 -79.04448199 15.60326837 -58.875 7.875 C-52.3331876 5.47153374 -45.90833817 4.17045193 -39 3.25 C-37.33070488 2.90843654 -35.66386435 2.55460658 -34 2.1875 C-22.82061821 -0.06574512 -11.36113495 0.01034504 0 0 Z " fill="#FDFDFE" transform="translate(171,57.75)"/>
<path d="M0 0 C2.02072758 -0.00217023 4.04089312 -0.02033243 6.06152344 -0.03930664 C18.73116816 -0.05790201 30.82854032 1.35683414 42.92089844 5.18530273 C43.55398926 5.37576172 44.18708008 5.5662207 44.83935547 5.76245117 C68.14788888 12.84614969 86.34672911 28.69765333 97.93261719 50.11108398 C112.49337328 78.71231462 111.92089844 109.53505008 111.92089844 141.18530273 C60.11089844 141.18530273 8.30089844 141.18530273 -45.07910156 141.18530273 C-39.56224904 170.08174323 -39.56224904 170.08174323 -21.07910156 191.18530273 C-10.38387737 197.70623057 8.65854735 196.58496459 20.53808594 194.00561523 C24.88150341 192.51034037 28.31620783 189.97560028 31.92089844 187.18530273 C32.90316406 186.46987305 32.90316406 186.46987305 33.90527344 185.73999023 C36.80912333 183.61437211 39.62533191 181.43783478 42.36230469 179.09936523 C43.62880859 178.0281543 43.62880859 178.0281543 44.92089844 176.93530273 C46.06558594 175.93756836 46.06558594 175.93756836 47.23339844 174.91967773 C53.99086403 170.55875517 61.66022716 170.91225307 69.42089844 170.98999023 C70.49718506 170.99282013 71.57347168 170.99565002 72.68237305 170.99856567 C76.09533143 171.00969543 79.50802034 171.03478679 82.92089844 171.06030273 C85.24511338 171.07034184 87.56933246 171.07946606 89.89355469 171.08764648 C95.56942675 171.10961113 101.24514333 171.14301648 106.92089844 171.18530273 C105.96437147 179.78344216 105.96437147 179.78344216 104.61621094 183.00170898 C104.36226562 183.62110352 104.10832031 184.24049805 103.84667969 184.87866211 C103.45029297 185.80388672 103.45029297 185.80388672 103.04589844 186.74780273 C102.66111328 187.67882812 102.66111328 187.67882812 102.26855469 188.62866211 C101.75231912 189.87255635 101.22989303 191.1139003 100.70117188 192.35253906 C99.93190607 194.15944719 99.18791213 195.97704705 98.44433594 197.79467773 C93.67038723 208.41977382 86.00101429 216.97351092 77.92089844 225.18530273 C77.28796875 225.84272461 76.65503906 226.50014648 76.00292969 227.17749023 C61.7202126 240.86115297 41.89038512 246.18585399 22.92089844 249.18530273 C21.28121094 249.46567383 21.28121094 249.46567383 19.60839844 249.75170898 C3.03136019 251.70091581 -14.14489062 250.33277946 -30.21191406 245.94311523 C-33.04246169 245.15653368 -33.04246169 245.15653368 -35.82128906 244.67749023 C-51.59369378 241.57543834 -65.08957149 232.58125034 -76.07910156 221.18530273 C-76.63452637 220.66266846 -77.18995117 220.14003418 -77.76220703 219.6015625 C-82.26053513 215.32429299 -85.54826401 210.82894049 -88.70410156 205.49780273 C-89.418927 204.29837036 -89.418927 204.29837036 -90.14819336 203.07470703 C-110.78244002 167.87970348 -113.4933043 118.35014296 -103.68457031 79.34545898 C-102.49982532 74.95614466 -101.18292347 70.61937237 -99.76953125 66.29858398 C-99.19170132 64.52995036 -98.65043029 62.74942822 -98.11816406 60.96655273 C-93.74910379 47.33829133 -85.13053749 36.11618171 -75.07910156 26.18530273 C-74.43585938 25.53174805 -73.79261719 24.87819336 -73.12988281 24.20483398 C-53.93976275 6.01376572 -25.57612179 -0.00306081 0 0 Z " fill="#FDFDFE" transform="translate(436.0791015625,127.814697265625)"/>
<path d="M0 0 C0.61617187 0.47050781 1.23234375 0.94101563 1.8671875 1.42578125 C7.04771594 5.51264257 10.46481896 10.47383008 14 16 C14.61230469 16.91910156 15.22460938 17.83820313 15.85546875 18.78515625 C20.73550707 26.51621909 22.97332035 34.13916804 25 43 C25.79274931 45.94348175 26.58879063 48.88604366 27.38671875 51.828125 C29.28416244 61.6416554 29.1393754 71.61485766 29.11352539 81.5690918 C29.11324274 83.10764057 29.11340277 84.64618947 29.1139679 86.18473816 C29.11425283 90.32859475 29.10840544 94.47242193 29.10139394 98.61627173 C29.09510961 102.95908948 29.0945526 107.30190802 29.09336853 111.64472961 C29.09027012 119.85379095 29.08207695 128.06283884 29.07201904 136.27189428 C29.06081146 145.62384383 29.05533578 154.97579405 29.05032361 164.32774866 C29.03989298 183.55184004 29.02232259 202.77591893 29 222 C23.82219834 222.04954105 18.64453554 222.08578636 13.46655273 222.10986328 C11.70611161 222.11990351 9.94568709 222.13353844 8.18530273 222.15087891 C5.65083715 222.17521436 3.11659261 222.18650296 0.58203125 222.1953125 C-0.20149216 222.20563507 -0.98501556 222.21595764 -1.7922821 222.22659302 C-6.02502289 222.22745662 -9.16909337 221.77974263 -13 220 C-14.258125 219.814375 -15.51625 219.62875 -16.8125 219.4375 C-22.47693399 218.07503197 -25.90261652 213.71131943 -29 209 C-32.37275638 201.89649368 -32.42959376 195.51870476 -32.40063477 187.734375 C-32.40761383 186.41957153 -32.4145929 185.10476807 -32.42178345 183.75012207 C-32.43682947 180.90404415 -32.44267664 178.05815301 -32.44125557 175.21203613 C-32.43921194 170.70603123 -32.4588549 166.20027526 -32.48143005 161.69433594 C-32.52231013 152.94197352 -32.54098588 144.18963113 -32.55760193 135.43719482 C-32.57999119 124.29668806 -32.61362233 113.15623945 -32.66480106 102.01582718 C-32.68464874 97.54219909 -32.69429771 93.06870213 -32.69575322 88.59503174 C-32.69784822 86.47995178 -32.70441476 84.3649411 -32.71292114 82.24987793 C-32.72314111 79.67901466 -32.72635799 77.10810949 -32.72102356 74.53723145 C-32.75812516 68.32232982 -33.17264968 62.94686643 -35 57 C-35.24878906 56.0409375 -35.49757813 55.081875 -35.75390625 54.09375 C-38.46983897 45.38177259 -43.35373234 40.59118773 -51.25 36.1875 C-67.32681829 31.09650754 -82.03860303 30.34917863 -98 36 C-104.96072447 39.74729267 -109.79349478 45.21150576 -112.21588135 52.78507996 C-114.46817973 60.64817513 -114.5754243 68.33808274 -114.54589844 76.4387207 C-114.55465384 78.0465392 -114.5651464 79.65434902 -114.57722473 81.262146 C-114.60486484 85.58568906 -114.60849433 89.90894473 -114.60750484 94.23256326 C-114.61065304 98.76628679 -114.63631056 103.29988445 -114.65948486 107.83354187 C-114.69990329 116.40022984 -114.72035213 124.96684196 -114.73345876 133.53361052 C-114.74937699 143.29437438 -114.78781272 153.05501005 -114.82805204 162.81569922 C-114.91025714 182.8771151 -114.9614986 202.93844936 -115 223 C-135.46 223 -155.92 223 -177 223 C-177.06805116 203.07462021 -177.1231746 183.14933634 -177.15543652 163.22386932 C-177.17082281 153.96951601 -177.19175209 144.7152407 -177.22631836 135.4609375 C-177.25647584 127.38304602 -177.27563462 119.3052111 -177.28226548 111.22726488 C-177.28613376 106.96080033 -177.29504644 102.6944974 -177.31719017 98.42808533 C-177.57283838 47.08333519 -177.57283838 47.08333519 -168 27 C-167.71527832 26.4004248 -167.43055664 25.80084961 -167.13720703 25.18310547 C-159.91716385 10.37183943 -148.99774929 -0.4975308 -135 -9 C-134.23945312 -9.47824219 -133.47890625 -9.95648438 -132.6953125 -10.44921875 C-95.11416925 -31.64712339 -33.20680514 -27.5881632 0 0 Z " fill="#FDFDFE" transform="translate(1495,150)"/>
<path d="M0 0 C20.13 0 40.26 0 61 0 C61.00410889 5.02114014 61.00821777 10.04228027 61.01245117 15.21557617 C61.02966489 31.82376081 61.07394322 48.43179235 61.13209057 65.03988171 C61.16667973 75.10726001 61.19208811 85.17450225 61.19555664 95.24194336 C61.198605 104.02117873 61.21921229 112.8001714 61.26052457 121.5793131 C61.28177736 126.22383861 61.29449511 130.86801975 61.28615379 135.51259422 C61.27856447 139.89338936 61.2946326 144.27348956 61.32806015 148.65415764 C61.33623505 150.25317081 61.33611308 151.85225386 61.32659721 153.45125961 C61.25518873 166.781044 63.35904406 178.36204981 73.0234375 188.26171875 C79.33272941 193.81040432 87.8092161 195.43065641 96 196 C97.09441406 196.07734375 98.18882812 196.1546875 99.31640625 196.234375 C111.23692545 196.6818606 123.13102856 194.52548637 132.49609375 186.515625 C140.43949987 178.51032221 142.44678762 168.08344638 142.51670837 157.2010498 C142.50562132 155.83691124 142.49418091 154.47277551 142.48242188 153.10864258 C142.48461258 151.64218279 142.48861667 150.17572478 142.49427795 148.70927429 C142.50278702 145.57343014 142.49913963 142.43792977 142.4858551 139.30210304 C142.46538275 134.33798309 142.4755529 129.3742037 142.4901123 124.41007996 C142.51677118 113.87752199 142.51015094 103.34507718 142.5 92.8125 C142.4890362 81.42835659 142.48386781 70.04439079 142.51729441 58.66027755 C142.53062893 53.73071672 142.52476557 48.80167392 142.50392914 43.87214434 C142.49491844 40.80264158 142.50243866 37.73333686 142.51434135 34.66385078 C142.51646455 33.24653191 142.51179547 31.82918313 142.4996357 30.41191483 C142.42633019 21.3539413 142.80710808 14.88450296 148.89453125 7.79296875 C149.52746094 7.26316406 150.16039062 6.73335937 150.8125 6.1875 C151.43769531 5.64480469 152.06289063 5.10210937 152.70703125 4.54296875 C159.03773364 0.28295607 164.1926106 -0.42716879 171.65234375 -0.29296875 C172.55247696 -0.28872391 173.45261017 -0.28447906 174.38002014 -0.28010559 C177.23282786 -0.26341816 180.08490863 -0.22578497 182.9375 -0.1875 C184.88084912 -0.1724403 186.82420939 -0.15875415 188.76757812 -0.14648438 C193.51199549 -0.11354726 198.25587483 -0.0618344 203 0 C203.02343195 20.32430765 203.04102952 40.64861252 203.05181217 60.97293091 C203.05695335 70.41132053 203.06395422 79.84970173 203.07543945 89.28808594 C203.08545318 97.52118308 203.09186925 105.75427411 203.09408849 113.98737717 C203.09538431 118.34071357 203.09839782 122.69403251 203.10573006 127.04736328 C203.11259618 131.15786493 203.11459578 135.26834219 203.11310768 139.37884903 C203.11337931 140.87503315 203.11532085 142.37121821 203.11920547 143.86739731 C203.1857742 170.86659021 200.3093888 197.66069973 181.57421875 218.54296875 C158.13607253 240.91412804 122.04822715 245.93238107 91.05078125 245.28515625 C83.42314091 245.00256347 76.38720362 243.9481861 69 242 C67.75089844 241.69449219 66.50179687 241.38898438 65.21484375 241.07421875 C43.60211384 235.34944255 24.48665214 223.62592277 12 205 C11.484375 204.24847656 10.96875 203.49695313 10.4375 202.72265625 C8.40036954 198.86428687 7.23043757 194.86265665 6 190.6875 C5.7525 189.89021484 5.505 189.09292969 5.25 188.27148438 C1.14075835 174.52050646 -0.44740778 161.38694366 -0.34057617 147.12890625 C-0.33972722 145.51080338 -0.34021025 143.89269937 -0.34190369 142.27459717 C-0.34275462 137.93673533 -0.32527737 133.59912897 -0.30418181 129.26132584 C-0.28526235 124.70767812 -0.28365267 120.15402275 -0.28010559 115.6003418 C-0.27082953 107.00182209 -0.24627672 98.40341859 -0.21605712 89.80494976 C-0.18237381 80.00550713 -0.16599229 70.20605857 -0.15097082 60.40657234 C-0.11972251 40.27096922 -0.06476688 20.13552513 0 0 Z " fill="#FDFDFE" transform="translate(822,132)"/>
<path d="M0 0 C2.12398713 -0.00217399 4.24744314 -0.0203367 6.37133789 -0.03930664 C32.6429437 -0.14783372 59.47055219 7.7469058 79.45922852 25.18530273 C80.06250977 25.69319336 80.66579102 26.20108398 81.28735352 26.72436523 C90.06124448 34.71926588 96.72019163 46.0229097 100.45922852 57.18530273 C100.81629883 58.07733398 101.17336914 58.96936523 101.54125977 59.88842773 C101.90606445 60.81139648 102.27086914 61.73436523 102.64672852 62.68530273 C102.9702832 63.49999023 103.29383789 64.31467773 103.62719727 65.15405273 C104.39848641 67.96400755 104.74190345 70.48275611 105.01123047 73.37475586 C105.09653519 74.27552856 105.1818399 75.17630127 105.26972961 76.10437012 C105.36353157 77.13443176 105.36353157 77.13443176 105.45922852 78.18530273 C96.95787411 78.4173559 88.45784894 78.59484975 79.95410728 78.70342445 C76.00496706 78.75554655 72.05799782 78.82618161 68.11010742 78.93969727 C64.29735783 79.04863669 60.48669044 79.10819642 56.67250443 79.13407516 C55.22018256 79.15250581 53.7679707 79.18850409 52.31653976 79.2426033 C47.88925728 79.40100603 43.75934991 79.41598715 39.45922852 78.18530273 C36.49165098 75.185625 35.07469707 72.03228095 33.45922852 68.18530273 C31.34352017 65.74967478 31.34352017 65.74967478 29.20922852 64.12280273 C28.21149414 63.30102539 28.21149414 63.30102539 27.19360352 62.46264648 C25.48024852 61.12484845 25.48024852 61.12484845 23.45922852 60.18530273 C23.45922852 59.52530273 23.45922852 58.86530273 23.45922852 58.18530273 C7.50254862 53.90470837 -7.11546342 51.69967524 -22.54077148 59.18530273 C-26.43029655 61.77999236 -29.48661953 64.65723065 -32.54077148 68.18530273 C-33.11053711 68.82854492 -33.68030273 69.47178711 -34.26733398 70.13452148 C-44.94497501 84.07021196 -46.90528732 104.21402643 -46.85644531 121.08984375 C-46.85330043 123.35197918 -46.87677259 125.61278239 -46.90209961 127.87475586 C-46.98369864 146.50302991 -43.9435463 168.41374176 -31.16577148 182.87280273 C-30.29952148 183.63592773 -29.43327148 184.39905273 -28.54077148 185.18530273 C-28.02772461 185.67772461 -27.51467773 186.17014648 -26.98608398 186.67749023 C-19.10355395 193.9788199 -11.38313359 195.8781503 -0.79077148 195.68530273 C0.79876343 195.66717529 0.79876343 195.66717529 2.42041016 195.64868164 C17.99388126 195.2545375 28.71318809 190.30056342 39.47875977 179.08374023 C45.20484597 173.5948292 50.79184631 171.05261491 58.68676758 171.07177734 C59.72754456 171.07185287 60.76832153 171.07192841 61.84063721 171.07200623 C62.95742859 171.07716751 64.07421997 171.0823288 65.22485352 171.08764648 C66.94765533 171.08976891 66.94765533 171.08976891 68.70526123 171.0919342 C72.37327683 171.0975313 76.04123137 171.1100833 79.70922852 171.12280273 C82.1962068 171.12781811 84.68318604 171.13238095 87.17016602 171.13647461 C93.26654101 171.14749978 99.3628804 171.16423505 105.45922852 171.18530273 C102.85318847 193.83633063 90.32205064 214.2436714 73.14672852 228.99780273 C46.89531902 249.39889812 14.71591496 253.11641636 -17.60327148 249.49780273 C-19.92320104 249.10158391 -22.23567072 248.66024798 -24.54077148 248.18530273 C-25.33209473 248.03464355 -26.12341797 247.88398438 -26.9387207 247.72875977 C-52.56084321 242.77562522 -73.85066206 229.92616934 -88.64624023 208.07592773 C-110.10986797 174.41065046 -115.19768387 125.68657413 -106.88793945 87.15844727 C-103.69211788 72.91427283 -99.99149824 59.78271624 -92.54077148 47.18530273 C-92.02256836 46.22366211 -91.50436523 45.26202148 -90.97045898 44.27124023 C-83.18768683 30.70027573 -70.94827564 20.81283354 -57.54077148 13.18530273 C-56.86143555 12.77022461 -56.18209961 12.35514648 -55.48217773 11.92749023 C-39.51527264 2.89498713 -17.90249316 -0.00204577 0 0 Z " fill="#FDFDFE" transform="translate(683.540771484375,127.814697265625)"/>
<path d="M0 0 C0 20.79 0 41.58 0 63 C-9.9 63.33 -19.8 63.66 -30 64 C-48.69478351 67.85575553 -48.69478351 67.85575553 -62 80 C-69.66672906 91.95942921 -71.44885409 104.90792027 -71.43237305 118.8684082 C-71.4425647 120.18703857 -71.45275635 121.50566895 -71.46325684 122.86425781 C-71.49053583 126.43571095 -71.5000711 130.00700498 -71.50611091 133.57854867 C-71.51557147 137.32750873 -71.54178022 141.0763534 -71.56611633 144.82524109 C-71.60957573 151.90443681 -71.63824831 158.98360988 -71.66143972 166.06289786 C-71.69369413 175.6431588 -71.74913298 185.22328485 -71.80318546 194.80344296 C-71.88758301 209.86892153 -71.94130003 224.93434859 -72 240 C-92.13 240 -112.26 240 -133 240 C-133.1209091 205.32595623 -133.1209091 205.32595623 -133.14648438 190.70898438 C-133.16423144 180.64733247 -133.18500575 170.58575637 -133.22631836 160.52416992 C-133.25640196 153.19382967 -133.27561756 145.86355137 -133.28226548 138.53315109 C-133.28614595 134.6587013 -133.2951399 130.7844286 -133.31719017 126.91003609 C-133.50352827 92.81010004 -129.0196937 58.22564811 -104.96875 31.93359375 C-95.61466667 22.74654762 -85.1736086 16.4148118 -73.4375 10.8125 C-72.74124512 10.47919678 -72.04499023 10.14589355 -71.32763672 9.80249023 C-48.75509039 -0.72130424 -24.736265 0 0 0 Z " fill="#FEFDFE" transform="translate(1185,132)"/>
<path d="M0 0 C43.51724138 0 43.51724138 0 52.9375 5.8125 C59.21357113 12.46893908 60.15061487 19.02979761 60.12025452 27.87103271 C60.12110894 28.77691549 60.12196337 29.68279826 60.12284368 30.61613202 C60.12449351 33.65784498 60.1189852 36.69950304 60.11352539 39.74121094 C60.11324339 41.91911315 60.11340151 44.09701545 60.1139679 46.2749176 C60.11425535 52.19392175 60.10836695 58.11290572 60.10139394 64.03190517 C60.09515181 70.21521846 60.09455592 76.39853219 60.09336853 82.58184814 C60.09025776 94.29377979 60.08204777 106.00570213 60.07201904 117.71762967 C60.06076993 131.04999482 60.05534546 144.38236 60.05032361 157.71472883 C60.03986496 185.14315891 60.02152262 212.57157622 60 240 C40.2 240 20.4 240 0 240 C0 160.8 0 81.6 0 0 Z " fill="#FEFEFE" transform="translate(1223,132)"/>
<path d="M0 0 C13.77174392 7.06446806 20.34191805 16.41335356 25.26953125 30.765625 C26.94245324 36.28426807 27.25 40.03478288 27.25 46 C-2.78 46 -32.81 46 -63.75 46 C-61.473889 30.06722299 -56.86424699 15.23308667 -43.75 5 C-30.83575698 -2.62968338 -14.45354005 -5.64502613 0 0 Z " fill="#6235E9" transform="translate(455.75,180)"/>
<path d="M0 0 C6.373125 -0.0825 12.74625 -0.165 19.3125 -0.25 C21.30063721 -0.28641602 23.28877441 -0.32283203 25.3371582 -0.36035156 C36.36284569 -0.47904565 46.27315522 -0.36300377 55 7.25 C65.08604461 17.43690505 61 34.90110834 61 47 C40.87 47 20.74 47 0 47 C0 31.49 0 15.98 0 0 Z " fill="#FCFBFE" transform="translate(1222,63)"/>
<path d="M0 0 C22.77 0 45.54 0 69 0 C66.50144095 2.49855905 64.25260715 3.15752205 60.9375 4.375 C59.75929688 4.82101563 58.58109375 5.26703125 57.3671875 5.7265625 C56.25601562 6.14679688 55.14484375 6.56703125 54 7 C48.17798848 9.20967434 42.99748663 12.11384228 37.75 15.4375 C37.15904541 15.80907227 36.56809082 16.18064453 35.95922852 16.56347656 C32.17669743 19.01984636 29.09930802 21.73673541 26 25 C25.12214844 25.80824219 25.12214844 25.80824219 24.2265625 26.6328125 C18.53177614 31.93868662 13.47905417 38.5628375 11 46 C10.34 46 9.68 46 9 46 C8.82791016 47.0828125 8.82791016 47.0828125 8.65234375 48.1875 C7.97407813 51.11175894 6.95793534 53.34991509 5.5625 56 C3.84519017 59.28083072 2.32778584 62.54158108 1 66 C0.67 66 0.34 66 0 66 C0 44.22 0 22.44 0 0 Z " fill="#EA7929" transform="translate(1052,131)"/>
<path d="M0 0 C0.33 0 0.66 0 1 0 C1 21.45 1 42.9 1 65 C-20.45 65 -41.9 65 -64 65 C-64 64.67 -64 64.34 -64 64 C-62.99582031 63.84144531 -61.99164062 63.68289063 -60.95703125 63.51953125 C-43.16010835 60.55046014 -25.42880993 54.31247011 -14.05859375 39.46484375 C-6.12870357 27.56144488 -1.6110287 14.17705256 0 0 Z " fill="#000000" transform="translate(1575,379)"/>
<path d="M0 0 C0.33 0 0.66 0 1 0 C1.15855469 1.00417969 1.31710938 2.00835937 1.48046875 3.04296875 C4.44953986 20.83989165 10.68752989 38.57119007 25.53515625 49.94140625 C37.43855512 57.87129643 50.82294744 62.3889713 65 64 C65 64.33 65 64.66 65 65 C43.55 65 22.1 65 0 65 C0 43.55 0 22.1 0 0 Z " fill="#000000" transform="translate(0,379)"/>
<path d="M0 0 C21.45 0 42.9 0 65 0 C65 21.45 65 42.9 65 65 C64.67 65 64.34 65 64 65 C63.84144531 63.99582031 63.68289063 62.99164063 63.51953125 61.95703125 C60.55046014 44.16010835 54.31247011 26.42880993 39.46484375 15.05859375 C27.56144488 7.12870357 14.17705256 2.6110287 0 1 C0 0.67 0 0.34 0 0 Z " fill="#000000" transform="translate(1511,0)"/>
<path d="M0 0 C21.45 0 42.9 0 65 0 C65 0.33 65 0.66 65 1 C63.49373047 1.23783203 63.49373047 1.23783203 61.95703125 1.48046875 C44.16010835 4.44953986 26.42880993 10.68752989 15.05859375 25.53515625 C7.12870357 37.43855512 2.6110287 50.82294744 1 65 C0.67 65 0.34 65 0 65 C0 43.55 0 22.1 0 0 Z " fill="#000000" transform="translate(0,0)"/>
<path d="M0 0 C0.66 0.33 1.32 0.66 2 1 C-3.28 6.28 -8.56 11.56 -14 17 C-14 11.79027084 -9.49956486 8.58109594 -6 5 C-4.05399166 3.22905099 -2.08162714 1.61326103 0 0 Z " fill="#E4DBFB" transform="translate(87,79)"/>
<path d="M0 0 C0.66 0.33 1.32 0.66 2 1 C-3.61 6.61 -9.22 12.22 -15 18 C-15 13.07254925 -11.31913617 10.39978807 -8 7 C-5.39491779 4.58973264 -2.72918126 2.2684104 0 0 Z " fill="#E4DCFB" transform="translate(1090,155)"/>
<path d="M0 0 C0.66 0.33 1.32 0.66 2 1 C-2.62 5.62 -7.24 10.24 -12 15 C-12.66 14.67 -13.32 14.34 -14 14 C-9.33333333 9.33333333 -4.66666667 4.66666667 0 0 Z " fill="#793FCA" transform="translate(1084,149)"/>
</svg>
