<svg id="White" xmlns="http://www.w3.org/2000/svg" viewBox="0 0 549.32 119.88"><defs><style>.cls-1{fill:#fff;}.cls-2{fill:#ed7b22;}</style></defs><path class="cls-1" d="M88.49,98.06c0-5.63-3.41-9.38-10.57-11.43-6.82-2-14.67-4.09-23-6.3C32.22,74.53,21,64,21,48.61c.51-24.38,15-36.31,43.65-36.14,27.28,0,41.43,11.93,42.79,36H94.11c-4.94,0-8.35-2.38-10.57-6.82-3.92-6.65-10.91-9.89-21-9.89-12.28.17-18.41,4.78-18.93,13.64,0,7.34,7.34,12.62,22.51,16a269.57,269.57,0,0,1,27.62,8q19.44,6.66,18.42,28.65c-1.37,22.67-16.71,33.93-46,33.93C35.46,132,20,119.2,19.26,94h23c.85,12.27,8.7,18.41,23.87,18.41S88.66,107.61,88.49,98.06Z" transform="translate(-19.26 -12.47)"/><path class="cls-1" d="M164,132.33c-27.28-.85-40.92-16.71-40.92-47.4s13.81-46,41.26-46.21q43,0,40.41,52.86H146.45c.85,13.81,6.82,20.8,17.9,20.8,5.29,0,10.23-2.22,14.67-6.48a9.94,9.94,0,0,1,7.67-3.24H203.4C198.45,121.76,186.18,132.33,164,132.33Zm-17.22-57h33.93c-1.36-11.93-7-18.07-16.71-18.07S148.5,63.45,146.79,75.38Z" transform="translate(-19.26 -12.47)"/><path class="cls-1" d="M256.59,132.33c-27.28,0-41.26-15.69-41.94-46.72,0-30.86,13.81-46.37,41.6-46.89,21.82,0,34.78,9.72,38.7,29.33H270.23c-2.73-6.14-7.5-9.38-14.66-9.38-11.94,0-17.91,9-17.91,26.94s6.31,26.94,18.93,26.77a17.71,17.71,0,0,0,13.64-6.48,10.46,10.46,0,0,1,7.67-3.24H295C290.86,121.08,277.56,132.84,256.59,132.33Z" transform="translate(-19.26 -12.47)"/><path class="cls-1" d="M382.75,94.31c0,15.51-3.92,25.74-11.93,30.69a52.56,52.56,0,0,1-26.6,7,45.5,45.5,0,0,1-25.58-7.68c-7.84-4.94-11.76-14.83-11.76-30V40.09h22.68V98.91c0,10.06,5.11,15,15.34,15s15.35-4.94,15.35-15V51.34c-.17-7.5,3.41-11.25,10.91-11.25h11.59Z" transform="translate(-19.26 -12.47)"/><path class="cls-1" d="M392.64,83.74c.68-29.16,16.19-43.65,46.37-43.65h3.24V63.62h-7.67c-12.62,0-18.93,6.65-18.93,19.78v46.88h-23Z" transform="translate(-19.26 -12.47)"/><path class="cls-1" d="M468,14.34c7.51,0,11.09,3.75,10.92,11.09v6.65H456.23V14.34Zm0,25.75c7.34,0,10.92,3.58,10.92,10.91v79.28H456.23V40.09Z" transform="translate(-19.26 -12.47)"/><path class="cls-1" d="M557,130.28c-7.5-.51-11.25-4.09-11.25-11.25V72.65c-.51-9.37-5.63-14-15.69-14s-15.17,4.61-15.34,14v57.63h-23v-53c0-25.75,13-38.54,38.7-38.54s38.37,12.79,38.2,38.54v53Z" transform="translate(-19.26 -12.47)"/><path class="cls-2" d="M392.7,65V39.89a.1.1,0,0,1,.09-.1h25.76c.11,0,.12.14,0,.18C402.44,45.33,397.63,52.45,392.88,65,392.84,65.13,392.7,65.12,392.7,65Z" transform="translate(-19.26 -12.47)"/></svg>