<svg id="Purple" xmlns="http://www.w3.org/2000/svg" viewBox="0 0 549.32 119.88"><defs><style>.cls-1{fill:#483888;}.cls-2{fill:#ed7b22;}</style></defs><path class="cls-1" d="M89.9,101.23c0-5.62-3.41-9.37-10.57-11.42-6.82-2-14.66-4.09-23-6.31C33.64,77.7,22.38,67.13,22.38,51.79c.52-24.38,15-36.32,43.65-36.15,27.28,0,41.43,11.94,42.8,36H95.53c-5,0-8.36-2.39-10.57-6.82C81,38.15,74,34.91,64,34.91c-12.27.17-18.41,4.77-18.92,13.64,0,7.33,7.33,12.62,22.51,16a267.78,267.78,0,0,1,27.62,8q19.43,6.64,18.41,28.64c-1.36,22.68-16.71,33.93-46,33.93-30.69,0-46.21-12.79-46.89-38h23c.85,12.28,8.69,18.41,23.87,18.41S90.07,110.78,89.9,101.23Z" transform="translate(-20.68 -15.64)"/><path class="cls-1" d="M165.43,135.5c-27.28-.85-40.92-16.71-40.92-47.39s13.81-46,41.26-46.21c28.64,0,42.11,17.56,40.41,52.85H147.86c.86,13.82,6.82,20.8,17.91,20.8,5.28,0,10.23-2.21,14.66-6.47a9.92,9.92,0,0,1,7.67-3.24h16.71C199.87,124.93,187.59,135.5,165.43,135.5ZM148.21,78.56h33.92c-1.36-11.94-7-18.08-16.7-18.08S149.91,66.62,148.21,78.56Z" transform="translate(-20.68 -15.64)"/><path class="cls-1" d="M258,135.5c-27.28,0-41.26-15.68-41.94-46.71,0-30.86,13.81-46.38,41.6-46.89,21.82,0,34.78,9.72,38.7,29.32H271.64c-2.73-6.13-7.5-9.37-14.66-9.37-11.94,0-17.9,9-17.9,26.94s6.31,26.94,18.92,26.76a17.69,17.69,0,0,0,13.64-6.47,10.45,10.45,0,0,1,7.67-3.24h17.05C292.27,124.25,279,136,258,135.5Z" transform="translate(-20.68 -15.64)"/><path class="cls-1" d="M384.17,97.48c0,15.52-3.92,25.75-11.94,30.69a52.44,52.44,0,0,1-26.6,7,45.46,45.46,0,0,1-25.57-7.67c-7.84-4.94-11.76-14.83-11.76-30V43.26H331v58.82c0,10.07,5.12,15,15.35,15s15.34-4.94,15.34-15V54.52c-.17-7.51,3.41-11.26,10.91-11.26h11.6Z" transform="translate(-20.68 -15.64)"/><path class="cls-1" d="M394.05,86.91c.68-29.15,16.2-43.65,46.38-43.65h3.24V66.79H436c-12.61,0-18.92,6.65-18.92,19.78v46.89h-23Z" transform="translate(-20.68 -15.64)"/><path class="cls-1" d="M469.41,17.52c7.5,0,11.08,3.75,10.91,11.08v6.65H457.64V17.52Zm0,25.74c7.33,0,10.91,3.58,10.91,10.92v79.28H457.64V43.26Z" transform="translate(-20.68 -15.64)"/><path class="cls-1" d="M558.41,133.46c-7.5-.51-11.26-4.09-11.26-11.26V75.83c-.51-9.38-5.62-14-15.68-14s-15.18,4.6-15.35,14v57.63h-23v-53c0-25.74,13-38.53,38.7-38.53S570.17,54.69,570,80.43v53Z" transform="translate(-20.68 -15.64)"/><path class="cls-2" d="M394.12,68.18V43.06a.09.09,0,0,1,.09-.09H420c.11,0,.12.14,0,.17-16.12,5.36-20.93,12.48-25.69,25.06C394.25,68.3,394.12,68.29,394.12,68.18Z" transform="translate(-20.68 -15.64)"/></svg>